<?xml version="1.0" encoding="UTF-8" ?>
<svg xmlns="http://www.w3.org/2000/svg" height="708.39" width="740.76" version="1.1" xmlns:xlink="http://www.w3.org/1999/xlink">
<defs>
<filter id="f1" height="1.2709607" width="1.2343178" color-interpolation-filters="sRGB" y="-0.13548033" x="-0.1171589">
<feGaussianBlur stdDeviation="9.7319538"/>
</filter>
<radialGradient id="g1" xlink:href="#g2" gradientUnits="userSpaceOnUse" cy="1027.7" cx="-297.84" gradientTransform="matrix(0.66094885,-0.0845869,0.07201317,0.56270201,880.66536,-1090.8615)" r="251.32"/>
<linearGradient id="g2">
<stop stop-color="#ff0" offset="0"/>
<stop stop-color="#ff0" stop-opacity="0" offset="1"/>
</linearGradient>
<filter id="f2" color-interpolation-filters="sRGB">
<feGaussianBlur stdDeviation="10.015938"/>
</filter>
<radialGradient id="g3" xlink:href="#g2" gradientUnits="userSpaceOnUse" cy="1027.7" cx="-297.84" gradientTransform="matrix(0.66094885,-0.0845869,0.07201317,0.56270201,876.51885,-1090.8615)" r="251.32"/>
<linearGradient id="g4" y2="128.89" xlink:href="#g5" gradientUnits="userSpaceOnUse" x2="151.48" gradientTransform="matrix(-0.53105681,0.20844001,-0.29275877,-0.37810476,494.55944,593.87328)" y1="101" x1="157.19"/>
<linearGradient id="g5">
<stop stop-color="#FFF" offset="0"/>
<stop stop-color="#FFF" stop-opacity="0" offset="1"/>
</linearGradient>
<linearGradient id="g6" y2="128.89" xlink:href="#g5" gradientUnits="userSpaceOnUse" x2="151.48" gradientTransform="matrix(-0.46199938,0.19324071,-0.25468908,-0.35053363,537.96695,593.2057)" y1="101" x1="157.19"/>
<linearGradient id="g7" y2="205.58" xlink:href="#g5" gradientUnits="userSpaceOnUse" x2="178.74" gradientTransform="matrix(1.7177143,0,0,1.7177143,453.5993,-691.2905)" y1="-35.273" x1="240.85"/>
</defs>
<g transform="translate(-9.7177467,-22.36533)">
<g transform="matrix(2.2471697,0,0,2.2471697,-1315.542,1354.1106)">
<path opacity="0.76999996" d="m259.87,144.73c0,47.607-38.877,86.2-86.833,86.2-47.957,0-86.833-38.593-86.833-86.2s38.877-86.2,86.833-86.2c47.957,0,86.833,38.593,86.833,86.2z" transform="matrix(1.3024029,0,-0.26814179,0.28467009,574.58774,-364.38664)" filter="url(#f1)" fill="#000"/>
<path fill="#808000" d="m887.4-441.05c0,75.117-61.342,136.01-137.01,136.01-75.669,0-137.01-60.894-137.01-136.01,0-75.117,61.342-136.01,137.01-136.01,75.669,0,137.01,60.894,137.01,136.01z"/>
<path fill="url(#g1)" d="m890.17-441.05c0,75.117-61.342,136.01-137.01,136.01-75.669,0-137.01-60.894-137.01-136.01,0-75.117,61.342-136.01,137.01-136.01,75.669,0,137.01,60.894,137.01,136.01z"/>
<path d="m-328.41,233.72zc-73.616,18.458-137.46,72.67-166.19,143.09-28.376,66.802-24.561,146.75,11,210.25,34.527,63.934,98.89,110.76,170.41,123.56,71.41,13.761,148.29-5.5621,203.95-52.582,50.759-41.847,83.795-105.02,87.805-170.82,1.7548-25.83-0.68107-51.881-7.1005-76.879,14.473,67.312-3.0454,140.49-46.656,193.62-41.235,51.728-105.3,84.875-171.71,87.818-64.77,3.5909-130.55-20.397-176.95-65.704-47.713-45.689-74.942-112.32-71.52-178.71,2.882-73.418,43.005-143.78,104.18-184.06,19.31-12.828,40.577-22.869,62.781-29.594z" transform="matrix(0.54000316,0,0,0.542433,894.41569,-692.787)" filter="url(#f2)" fill="#000"/>
<path fill="url(#g3)" d="m886.02-441.05c0,75.117-61.342,136.01-137.01,136.01-75.669,0-137.01-60.894-137.01-136.01,0-75.117,61.342-136.01,137.01-136.01,75.669,0,137.01,60.894,137.01,136.01z"/>
<g transform="translate(64.171561,-160.4289)">
<path fill="#000" d="m638.05-356.97c2.5395-0.98732,4.1011-2.9701,11.421-3.615,3.5331-0.0417,6.8407,0.98558,10.308,1.1052,3.6567,1.5145,6.1941,1.9415,8.6915,3.5272,1.587-0.10383,3.7188,1.73,5.3274,1.775,4.7852,3.1634,4.4052,6.7019,0.052,4.2376l-1.1364-1.1522c-1.5499-0.0613-3.6671-1.6839-5.2031-1.6173-3.527-2.1116-4.4671-1.6593-8.0509-2.9136-3.5157-0.23434-6.8203-0.98368-10.363-1.1084-6.0267-0.0996-8.4142,1.6271-13.102,3.4123-3.4968,3.2129-4.7196-2.4308,2.055-3.6508z"/>
<path fill="#f9f9f9" d="m683.87-307.51c0,23.397-13.578,42.364-30.327,42.364s-30.327-18.967-30.327-42.364,13.578-42.364,30.327-42.364,30.327,18.967,30.327,42.364z"/>
<g transform="matrix(1.4665421,0,0,1.4665421,100.90352,-1135.4298)">
<path fill="#000" d="m171.13,119.38c0,8.4012-6.5267,15.212-14.578,15.212-8.0511,0-14.578-6.8105-14.578-15.212,0-8.4012,6.5267-15.212,14.578-15.212,8.0511,0,14.578,6.8105,14.578,15.212z" transform="matrix(0.82470233,0,0,1.2000508,251.65333,426.56971)"/>
<path fill="url(#g4)" d="m384.56,584.45c2.5312-1.1182,3.8126-3.44,3.1947-5.4599-4.9362-0.4475-10.013,0.80645-14.567,1.5884,0.74941,3.5039,7.0968,5.9527,11.372,3.8715z"/>
</g>
<path fill="#f9f9f9" d="m758.95-308.89c0,21.691-11.812,39.275-26.383,39.275s-26.383-17.584-26.383-39.275,11.812-39.275,26.383-39.275,26.383,17.584,26.383,39.275z"/>
<g transform="matrix(1.4665421,0,0,1.4665421,75.965874,-1138.3778)">
<path fill="#000" d="m171.13,119.38c0,8.4012-6.5267,15.212-14.578,15.212-8.0511,0-14.578-6.8105-14.578-15.212,0-8.4012,6.5267-15.212,14.578-15.212,8.0511,0,14.578,6.8105,14.578,15.212z" transform="matrix(0.71745993,0,0,1.112544,326.6478,438.10178)"/>
<path fill="url(#g6)" d="m442.27,584.47c2.202-1.0367,3.3168-3.1891,2.7792-5.0618-4.2943-0.41488-8.7113,0.74764-12.672,1.4726,0.65197,3.2484,6.174,5.5187,9.8931,3.5892z"/>
</g>
<path fill="#000" d="m713.54-347.8c2.0031-1.847,2.7322-4.2632,9.3106-7.5383,3.2735-1.3297,6.7277-1.5821,9.9995-2.7379,3.9572,0.0736,6.4752-0.45605,9.3793,0.1075,1.4393-0.67656,4.0938,0.25152,5.6076-0.29435,5.6102,1.1962,6.5495,4.6288,1.5966,3.9257l-1.4789-0.65728c-1.4651,0.50924-4.0287-0.22753-5.4342,0.39569-4.0547-0.67684-4.7646,0.0877-8.5588,0.22962-3.3582,1.0665-6.7082,1.5765-10.051,2.7548-5.6464,2.1094-7.2378,4.5891-10.949,7.9638-2.081,4.2684-5.2815-0.53812,0.5788-4.1493z"/>
<path stroke-linejoin="miter" d="m645.55-216.26h12.504,12.17,13.669,12.471,15.311,12.774,11.075,5.4687c5.1688,0,5.1688,14.947,0,14.947h-5.4687-11.075-12.774-15.311-12.471-13.669-12.17-12.504c-5.1688,0-5.1688-14.947,0-14.947z" stroke="#000" stroke-linecap="butt" stroke-miterlimit="4" stroke-dasharray="none" stroke-width="6.18430042" fill="#000"/>
</g>
<path fill="url(#g7)" d="m750.76-568.8c-29.155,0.28637-61.471,8.9545-81.108,31.241,19.603,72.439,113.06,114.29,179.39,77.243,8.3706-4.7516,19.58-9.5299,24.316-17.231-14.77-52.906-67.401-92.822-122.6-91.254z"/>
<path fill="url(#g7)" d="m750.76-568.8c-29.155,0.28637-61.471,8.9545-81.108,31.241,19.603,72.439,113.06,114.29,179.39,77.243,8.3706-4.7516,19.58-9.5299,24.316-17.231-14.77-52.906-67.401-92.822-122.6-91.254z"/>
<path fill="url(#g7)" d="m750.76-568.8c-29.155,0.28637-61.471,8.9545-81.108,31.241,19.603,72.439,113.06,114.29,179.39,77.243,8.3706-4.7516,19.58-9.5299,24.316-17.231-14.77-52.906-67.401-92.822-122.6-91.254z"/>
</g>
</g>
</svg>